<svg xmlns="http://www.w3.org/2000/svg" width="128" height="128" viewBox="0 0 128 128">
  <defs>
    <linearGradient id="g" x1="0" y1="0" x2="1" y2="1">
      <stop offset="0" stop-color="#ffe2b2"/>
      <stop offset="1" stop-color="#ff8a1f"/>
    </linearGradient>
  </defs>
  <rect x="14" y="14" width="100" height="100" rx="28" fill="rgba(255,255,255,.08)" stroke="rgba(255,255,255,.14)"/>
  <path d="M32 55h64v46c0 8-6 14-14 14H46c-8 0-14-6-14-14V55z" fill="rgba(255,255,255,.08)" stroke="rgba(255,255,255,.14)"/>
  <path d="M32 55h64v10H32z" fill="url(#g)"/>
  <path d="M60 55v60h8V55z" fill="url(#g)"/>
  <path d="M50 47c6-10 14-10 18 0c4-10 12-10 18 0c-7 9-16 14-18 14s-11-5-18-14z" fill="url(#g)"/>
</svg>
